<?xml version="1.0" encoding="UTF-8"?> <svg xmlns="http://www.w3.org/2000/svg" width="298" height="906" viewBox="0 0 298 906" fill="none"> <path d="M253.129 -51.4207C285.792 17.9882 309.896 102.098 288.339 178.012C275.231 224.175 236.63 251.255 192.423 264.984C138.426 281.752 29.7197 274.828 16.9138 272.019C4.10785 269.21 -3.83509 256.384 5.38069 243.334C14.5965 230.283 41.7027 240.545 53.7538 246.958C75.3468 258.449 90.7092 274.725 103.151 295.679C108.57 304.807 121.475 326.186 117.132 338.663C109.454 360.727 77.5969 373.68 58.9166 383.227C42.2182 391.76 11.1367 406.056 13.3943 429.854C14.5728 442.277 22.5789 455.25 28.5955 465.616C40.2769 485.742 54.2352 504.272 68.2174 522.818C109.359 577.387 167.523 640.447 139.12 712.907C128.085 741.058 94.1947 774.046 120.547 802.444C142.498 826.1 156 828.5 172 835C188 841.5 211 836.5 206 815C201 793.5 101.24 821 137.62 857.5C174 894 228.222 883.662 252 894C263.5 899 265.6 909.6 268 916" stroke="#333333" stroke-width="2" stroke-linecap="round"></path> </svg> 