<?xml version="1.0" encoding="UTF-8"?> <svg xmlns="http://www.w3.org/2000/svg" width="355" height="686" viewBox="0 0 355 686" fill="none"> <path fill-rule="evenodd" clip-rule="evenodd" d="M31.2959 0.673005C31.1152 0.151103 30.5457 -0.125529 30.0238 0.0551291C29.5019 0.235787 29.2253 0.805324 29.4059 1.32723C41.5983 36.5496 61.0143 78.7526 92.8928 100.822C111.385 113.625 133.004 119.505 154.391 125.323L154.393 125.323C157.425 126.148 160.453 126.971 163.466 127.813C187.807 134.613 211.289 142.613 229.513 161.909C247.67 181.134 248.094 207.637 231.681 228.153C219.482 243.403 203.248 251.614 184.799 258.056C158.886 267.105 132.4 276.545 107.075 287.189C88.8149 294.864 69.9151 304.211 52.7395 314.134C49.7048 315.888 46.6026 317.583 43.4863 319.285L43.4855 319.286C32.3916 325.347 21.1196 331.505 12.0805 340.745C-0.436424 353.54 -3.81317 374.614 9.62497 388.799C18.2537 397.907 30.9213 400.642 43.7419 402.4C46.0912 402.722 48.4392 403.01 50.7743 403.297C54.8716 403.8 58.9293 404.299 62.8847 404.966C69.0713 406.009 74.8746 407.448 79.9135 409.899L80.7972 410.329L80.7977 410.329C87.0711 413.379 92.1367 415.841 96.3484 419.096C100.714 422.47 104.174 426.712 106.985 433.388C112.031 445.374 115.19 455.241 116.087 465.427C114.483 465.673 112.92 466.005 111.448 466.423C108.09 467.376 105.095 468.801 103.192 470.745C99.4957 474.521 98.0536 479.709 98.2849 485.108C98.5161 490.504 100.417 496.185 103.505 501.088C117.978 524.075 141.324 546.503 166.395 557.472C180.392 563.596 197.345 562.938 213.952 562.294H213.953C215.365 562.239 216.775 562.184 218.181 562.134C236.264 561.485 253.601 561.539 266.79 570.494C269.91 572.613 272.49 576.681 274.73 582.272C276.959 587.834 278.792 594.747 280.517 602.377C281.543 606.919 282.53 611.717 283.539 616.62L283.539 616.622L283.54 616.623C285.905 628.119 288.388 640.188 291.773 650.885C294.192 658.531 297.092 665.548 300.781 671.221C304.471 676.897 308.986 681.28 314.649 683.563C324.564 687.56 337.55 684.971 355 672.779V670.331C337.167 683.083 324.57 685.406 315.397 681.708C310.232 679.626 306.005 675.588 302.457 670.131C298.907 664.671 296.073 657.844 293.68 650.282C290.327 639.687 287.88 627.791 285.524 616.341C284.51 611.41 283.513 606.562 282.467 601.936C280.738 594.284 278.877 587.244 276.586 581.528C274.307 575.84 271.543 571.304 267.913 568.839C254.102 559.461 236.089 559.49 218.109 560.135C216.729 560.185 215.35 560.238 213.972 560.291C197.239 560.935 180.75 561.569 167.196 555.64C142.565 544.863 119.503 522.745 105.197 500.023C102.272 495.377 100.498 490.03 100.283 485.022C100.069 480.016 101.411 475.424 104.621 472.144C106.172 470.56 108.781 469.259 111.994 468.347C113.335 467.967 114.763 467.659 116.234 467.428C116.312 468.757 116.351 470.094 116.351 471.445C116.351 481.336 124.217 486.281 130.925 486.279C134.279 486.277 137.524 485.042 139.351 482.384C141.2 479.694 141.399 475.84 139.265 471.038C138.234 468.717 135.74 467.192 132.802 466.252C129.821 465.298 126.157 464.87 122.425 464.911C120.98 464.927 119.518 465.013 118.072 465.168C117.139 454.713 113.896 444.649 108.828 432.612C105.889 425.632 102.221 421.108 97.5716 417.514C93.1913 414.128 87.9504 411.581 81.7587 408.573L81.7584 408.572L80.7884 408.101C75.4985 405.527 69.4786 404.05 63.2174 402.994C59.2249 402.32 55.0798 401.811 50.9467 401.303L50.946 401.303L50.9413 401.302C48.6185 401.017 46.2995 400.732 44.0136 400.418C31.1808 398.659 19.1771 395.974 11.0769 387.423C-1.43733 374.214 1.54193 354.378 13.5102 342.144C22.3195 333.139 33.2412 327.169 44.2912 321.128L44.2918 321.128C47.4462 319.404 50.611 317.674 53.7401 315.866C70.841 305.985 89.6653 296.676 107.849 289.033C133.112 278.415 159.547 268.993 185.458 259.944C204.047 253.453 220.699 245.083 233.243 229.403C250.25 208.144 249.841 180.52 230.967 160.536C212.334 140.807 188.368 132.693 164.005 125.887C160.971 125.04 157.932 124.212 154.896 123.386C133.479 117.557 112.22 111.77 94.0312 99.1779C62.7274 77.506 43.4792 35.8693 31.2959 0.673005ZM118.351 471.445C118.351 470.004 118.308 468.579 118.222 467.164C119.621 467.012 121.041 466.927 122.447 466.911C126.035 466.872 129.473 467.286 132.192 468.156C134.954 469.04 136.758 470.322 137.438 471.851C139.401 476.268 139.024 479.329 137.703 481.251C136.36 483.205 133.844 484.278 130.924 484.279C125.082 484.281 118.351 480.007 118.351 471.445Z" fill="#333333"></path> </svg> 